# xmcd
#
# Track frame offsets: 
#        150
#        23604
#        42176
#        64294
#        86091
#        100140
#        123214
#        143501
#        160926
#        181950
#
# Disc length: 2723 seconds
#
# Revision: 1
# Processed by: cddbd v1.5.2PL0 Copyright (c) Steve Scherf et al.
# Submitted via: ExactAudioCopy v0.95a4
#
DISCID=790aa10a
DTITLE=Joanne Shaw Taylor - Diamonds In The Dirt
DYEAR=2010
DGENRE=Blues
TTITLE0=Can't Keep Living Like This
TTITLE1=Dead And Gone
TTITLE2=Same As It Never Was
TTITLE3=Jump That Train
TTITLE4=Who Do You Love
TTITLE5=Diamonds In The Dirt
TTITLE6=Let It Burn
TTITLE7=World On Fire
TTITLE8=Lord Have Mercy
TTITLE9=The World And It's Way
EXTD=Year: 2010\n\n\n\n\n\n                                           
EXTD= www.joanneshawtaylor.com
EXTT0=
EXTT1=
EXTT2=
EXTT3=
EXTT4=
EXTT5=
EXTT6=
EXTT7=
EXTT8=
EXTT9=
PLAYORDER=
